<?xml version="1.0" standalone="no"?><!DOCTYPE svg PUBLIC "-//W3C//DTD SVG 1.1//EN" "http://www.w3.org/Graphics/SVG/1.1/DTD/svg11.dtd"><svg t="1779404152220" class="icon" viewBox="0 0 1024 1024" version="1.1" xmlns="http://www.w3.org/2000/svg" p-id="5649" xmlns:xlink="http://www.w3.org/1999/xlink" width="200" height="200"><path d="M980.222534 219.570258q-4.552268 5.580199-9.691925 10.573009a30.3974 30.3974 0 0 1-21.439712 8.957688 30.984789 30.984789 0 0 1-21.586559-8.957688 30.3974 30.3974 0 0 1 0-43.026272 132.162608 132.162608 0 0 0 19.090155-23.789269 421.011331 421.011331 0 0 0-86.052543-85.905695A143.323006 143.323006 0 0 0 837.046375 96.365338a30.250553 30.250553 0 1 1-42.879424-42.879424c3.377489-3.377489 6.754978-6.60813 10.279314-9.691925a264.325216 264.325216 0 0 0-113.219301-26.579369 215.278204 215.278204 0 0 0-153.896015 62.99751 16.740597 16.740597 0 0 1-1.615321 1.615321C499.297488 119.567218 306.486927 307.678664 75.202363 341.6004a70.780419 70.780419 0 0 0-56.683075 18.502765c-32.159568 32.306415-22.320796 92.660673 29.369469 179.741147a1306.941348 1306.941348 0 0 0 195.013271 241.123336l18.20907 17.915376A136.568028 136.568028 0 0 0 455.243285 957.625001h0.734236c66.815541 44.054203 119.827431 65.787609 158.59513 65.78761a67.696625 67.696625 0 0 0 49.634402-18.649613 71.074114 71.074114 0 0 0 18.355918-57.711005c34.215431-230.697175 222.033182-423.067194 259.772949-459.632182l1.61532-1.615321a215.718746 215.718746 0 0 0 62.116426-174.60149 275.338767 275.338767 0 0 0-25.845132-91.632742zM620.593392 961.296185c-4.99281 2.936947-39.501935 2.643252-117.477874-45.816371a136.568028 136.568028 0 0 0-207.642142-176.216811l-3.377489 3.524336-5.873893-5.873893C101.634884 552.326336 51.413093 423.394369 61.839254 404.01052c20.118086-11.013551 148.903205 39.061393 334.665094 224.089045s234.955748 313.812771 224.089044 333.19662z m155.070794-763.606181a20.852323 20.852323 0 0 1-28.19469 8.076604c-17.768528-9.691925-77.094855-9.545077-137.155418 54.333517-71.220961 75.626381-193.691645 132.162608-198.831301 134.365318a20.118086 20.118086 0 0 1-8.663993 1.909015 20.705475 20.705475 0 0 1-8.517146-39.501935c1.174779 0 120.267973-55.508295 185.908735-125.113935 74.451603-79.150718 154.336557-80.178649 187.083514-62.263274a20.705475 20.705475 0 0 1 8.370299 28.047843zM949.971981 73.604c19.530697 19.530697 17.034292 56.536227-3.377488 89.283184a338.776819 338.776819 0 0 1 33.628041 56.242532c52.277654-60.354258 58.738937-142.58877 12.775719-188.551988S864.653675-8.483665 804.15257 44.234531a344.063323 344.063323 0 0 1 56.38938 33.1875c32.746957-20.411781 69.752488-23.055033 89.430031-3.818031z" fill="#1296db" p-id="5650"></path></svg>